<svg width="47" height="45" viewBox="0 0 47 45" fill="none" xmlns="http://www.w3.org/2000/svg">
<g id="Iconex/Broken/Book">
<g id="Book">
<path id="Vector" d="M23.6667 3.42115V39.9797M23.6667 3.42115L26.0503 2.52665C31.4746 0.491118 37.5255 0.491117 42.9498 2.52665C44.3894 3.06689 45.3334 4.375 45.3334 5.82966V35.8395C45.3334 37.8369 43.183 39.2028 41.2062 38.4609C36.9013 36.8454 32.0988 36.8454 27.7939 38.4609L23.6964 39.9986C23.6822 40.0039 23.6667 39.9941 23.6667 39.9797M23.6667 3.42115L21.2831 2.52665C15.8588 0.491118 9.80786 0.491117 4.38364 2.52665C2.944 3.06689 2 4.375 2 5.82966V15.4988M23.6667 39.9797C23.6667 39.9941 23.6512 40.0039 23.637 39.9986L19.5395 38.4609C15.2346 36.8454 10.4321 36.8454 6.12718 38.4609C4.15036 39.2028 2 37.8369 2 35.8395V24.0037" stroke="#2B3F6C" stroke-width="2" stroke-linecap="round"/>
</g>
</g>
</svg>
