<svg width="46" height="43" viewBox="0 0 46 43" fill="none" xmlns="http://www.w3.org/2000/svg">
<g id="Iconex/Broken/Case">
<g id="Case">
<path id="Rectangle 2" d="M23.5 9C24.0523 9 24.5 8.55228 24.5 8C24.5 7.44772 24.0523 7 23.5 7V9ZM24.679 25.6364L24.9737 26.5919L24.679 25.6364ZM22.321 25.6364L22.0263 26.5919L22.321 25.6364ZM43.5895 19.8035L43.2947 18.8479L43.5895 19.8035ZM44 10V17.8923H46V10H44ZM3 17.8923V10H1V17.8923H3ZM43.2947 18.8479L24.3842 24.6808L24.9737 26.5919L43.8842 20.7591L43.2947 18.8479ZM22.6158 24.6808L3.70526 18.8479L3.11577 20.7591L22.0263 26.5919L22.6158 24.6808ZM4 9H23.5V7H4V9ZM34.25 9H43V7H34.25V9ZM29.0514 9H34.25V7H29.0514V9ZM24.3842 24.6808C23.8081 24.8585 23.1919 24.8585 22.6158 24.6808L22.0263 26.5919C22.9864 26.8881 24.0136 26.8881 24.9737 26.5919L24.3842 24.6808ZM1 17.8923C1 19.2086 1.85799 20.3711 3.11577 20.7591L3.70526 18.8479C3.286 18.7186 3 18.3311 3 17.8923H1ZM44 17.8923C44 18.3311 43.714 18.7186 43.2947 18.8479L43.8842 20.7591C45.142 20.3711 46 19.2086 46 17.8923H44ZM46 10C46 8.34315 44.6569 7 43 7V9C43.5523 9 44 9.44772 44 10H46ZM3 10C3 9.44772 3.44772 9 4 9V7C2.34314 7 1 8.34315 1 10H3Z" fill="#2B3F6C"/>
<path id="Line" d="M23 20L23 16" stroke="#2B3F6C" stroke-width="2" stroke-linecap="round" stroke-linejoin="round"/>
<path id="Rectangle 5" d="M5 28.3337C5 27.7814 4.55228 27.3337 4 27.3337C3.44772 27.3337 3 27.7814 3 28.3337H5ZM43 20V36H45V20H43ZM40 39H8V41H40V39ZM5 36V28.3337H3V36H5ZM8 39C6.34315 39 5 37.6569 5 36H3C3 38.7614 5.23858 41 8 41V39ZM43 36C43 37.6569 41.6569 39 40 39V41C42.7614 41 45 38.7614 45 36H43Z" fill="#2B3F6C"/>
<path id="Rectangle 4" d="M31 8V3C31 1.89543 30.1046 1 29 1H18C16.8954 1 16 1.89543 16 3L16 8" stroke="#2B3F6C" stroke-width="2"/>
</g>
</g>
</svg>
