<svg width="24" height="24" viewBox="0 0 24 24" fill="none" xmlns="http://www.w3.org/2000/svg">
<g id="Iconex/Broken/Home">
<g id="Home">
<path id="Rectangle 74" d="M9.46869 1.75781L9.87494 1.40625V1.40625C10.8079 0.598915 12.192 0.598915 13.1249 1.40625L16.6174 4.42861C17.4954 5.1884 17.9999 6.2922 17.9999 7.45329V11.4421C17.9999 13.4071 16.407 15 14.442 15V15C13.9508 15 13.5526 14.6018 13.5526 14.1105V12.75M7.03119 3.86719L6.62494 4.21875L6.38243 4.42861C5.50445 5.1884 4.99994 6.2922 4.99994 7.45329L4.99994 11.4421C4.99994 13.4071 6.59286 15 8.55783 15V15C9.04908 15 9.44731 14.6018 9.44731 14.1105V12.5C9.44731 11.3954 10.3427 10.5 11.4473 10.5H11.4999" stroke="#2B3F6C" stroke-width="1.5" stroke-linecap="round"/>
</g>
</g>
</svg>
