<svg width="41" height="49" viewBox="0 0 41 49" fill="none" xmlns="http://www.w3.org/2000/svg">
<g id="Iconex/Broken/User">
<g id="User">
<path id="Ellipse 33" d="M8.5 11.75C8.5 17.2728 12.9772 21.75 18.5 21.75C24.0228 21.75 28.5 17.2728 28.5 11.75C28.5 6.22715 24.0228 1.75 18.5 1.75" stroke="#2B3F6C" stroke-width="2" stroke-linecap="round"/>
<path id="Rectangle 2" d="M1 35.8189C1 34.1284 2.06268 32.6205 3.65465 32.0519L7.4009 30.714C14.5783 28.1506 22.4217 28.1506 29.5991 30.714L33.3453 32.0519C34.9373 32.6205 36 34.1284 36 35.8189V43.194C36 44.4111 34.922 45.346 33.7172 45.1739L22.3184 43.5455C19.7857 43.1837 17.2144 43.1837 14.6816 43.5455L3.28284 45.1739C2.07798 45.346 1 44.4111 1 43.194V35.8189Z" stroke="#2B3F6C" stroke-width="2"/>
</g>
</g>
</svg>
